<svg width="21" height="21" viewBox="0 0 21 21" fill="none" xmlns="http://www.w3.org/2000/svg">
<path d="M10.6328 0.210938C9.31959 0.210937 8.01923 0.469595 6.80598 0.972142C5.59272 1.47469 4.49033 2.21128 3.56174 3.13987C1.68638 5.01523 0.632813 7.55877 0.632812 10.2109C0.632813 12.8631 1.68638 15.4066 3.56174 17.282C4.49033 18.2106 5.59272 18.9472 6.80598 19.4497C8.01923 19.9523 9.31959 20.2109 10.6328 20.2109C13.285 20.2109 15.8285 19.1574 17.7039 17.282C19.5792 15.4066 20.6328 12.8631 20.6328 10.2109C20.6328 8.89772 20.3742 7.59736 19.8716 6.3841C19.3691 5.17085 18.6325 4.06846 17.7039 3.13987C16.7753 2.21128 15.6729 1.47469 14.4596 0.972142C13.2464 0.469595 11.946 0.210938 10.6328 0.210938V0.210938ZM5.70281 16.4909C6.13281 15.5909 8.75281 14.7109 10.6328 14.7109C12.5128 14.7109 15.1328 15.5909 15.5628 16.4909C14.1622 17.607 12.4237 18.2135 10.6328 18.2109C8.77281 18.2109 7.06281 17.5709 5.70281 16.4909ZM16.9928 15.0409C15.5628 13.3009 12.0928 12.7109 10.6328 12.7109C9.17281 12.7109 5.70281 13.3009 4.27281 15.0409C3.209 13.6556 2.63248 11.9576 2.63281 10.2109C2.63281 5.80094 6.22281 2.21094 10.6328 2.21094C15.0428 2.21094 18.6328 5.80094 18.6328 10.2109C18.6328 12.0309 18.0128 13.7109 16.9928 15.0409V15.0409ZM10.6328 4.21094C8.69281 4.21094 7.13281 5.77094 7.13281 7.71094C7.13281 9.65094 8.69281 11.2109 10.6328 11.2109C12.5728 11.2109 14.1328 9.65094 14.1328 7.71094C14.1328 5.77094 12.5728 4.21094 10.6328 4.21094ZM10.6328 9.21094C10.235 9.21094 9.85346 9.0529 9.57215 8.7716C9.29085 8.49029 9.13281 8.10876 9.13281 7.71094C9.13281 7.31311 9.29085 6.93158 9.57215 6.65028C9.85346 6.36897 10.235 6.21094 10.6328 6.21094C11.0306 6.21094 11.4122 6.36897 11.6935 6.65028C11.9748 6.93158 12.1328 7.31311 12.1328 7.71094C12.1328 8.10876 11.9748 8.49029 11.6935 8.7716C11.4122 9.0529 11.0306 9.21094 10.6328 9.21094Z" fill="black"/>
</svg>
